# xmcd
#
# Track frame offsets:
#	150
#	14797
#	29070
#	40477
#	51445
#	65805
#	85570
#	118977
#	132312
#	156787
#	184060
#	201455
#	218437
#	249485
#	268480
#	281927
#	293862
#
# Disc length: 4151
#
# Revision: 4
# Processed by: cddbd v1.5.1PL0 Copyright (c) Steve Scherf et al.
# Submitted via: CDex 1.51
# Normalized: r3:DSETVAR1
#
DISCID=1d103511
DTITLE=Various Artist - Black Voices - Lost In Soul Music [CD1]
DYEAR=1997
DGENRE=Soul
TTITLE0=Isaac Hayes - Do Your Thing
TTITLE1=Aretha Franklin - Rock Steady
TTITLE2=Jimmy McCracklin - I Finally Got You
TTITLE3=Ann Peebles - Slipped Tripped Fell In Love
TTITLE4=Brenton Wood - You're Everything I Need
TTITLE5=Patty Labelle - You Can't Judge A Book By The Cover
TTITLE6=James Brown - Cold Sweat (Pts. 1&2)
TTITLE7=William Bell - Will You Still Love Me Tomorrow
TTITLE8=Marvin Gaye - Inner City Blues
TTITLE9=The Sweet Inspirations - Wishes And Dishes
TTITLE10=Smokey Robinson - Baby Thet's Backatcha
TTITLE11=Teena Marie - I Need Your Lovin'
TTITLE12=First Choice - Love And Happiness
TTITLE13=Randy Crawford - Rainy Night In Georgia
TTITLE14=Al Green - Summertime
TTITLE15=Ray Charles - Leave My Woman Alone
TTITLE16=Shirley Brown - Woman To Woman
EXTD=YEAR: 1997
EXTT0=
EXTT1=
EXTT2=
EXTT3=
EXTT4=
EXTT5=
EXTT6=
EXTT7=
EXTT8=
EXTT9=
EXTT10=
EXTT11=
EXTT12=
EXTT13=
EXTT14=
EXTT15=
EXTT16=
PLAYORDER=
